<?xml version="1.0" standalone="no"?>
<!DOCTYPE svg PUBLIC "-//W3C//DTD SVG 20010904//EN"
 "http://www.w3.org/TR/2001/REC-SVG-20010904/DTD/svg10.dtd">
<svg version="1.0" xmlns="http://www.w3.org/2000/svg"
 width="300.000000pt" height="300.000000pt" viewBox="0 0 300.000000 300.000000"
 preserveAspectRatio="xMidYMid meet">
<metadata>
Created by potrace 1.10, written by Peter Selinger 2001-2011
</metadata>
<g transform="translate(0.000000,300.000000) scale(0.100000,-0.100000)"
fill="#000000" stroke="none">
<path d="M0 1500 l0 -1500 1500 0 1500 0 0 1500 0 1500 -1500 0 -1500 0 0
-1500z m1770 580 l0 -60 -270 0 -270 0 0 60 0 60 270 0 270 0 0 -60z m108
-692 l-3 -523 -375 0 -375 0 -3 523 -2 522 380 0 380 0 -2 -522z"/>
<path d="M1240 1390 l0 -410 260 0 260 0 0 410 0 410 -260 0 -260 0 0 -410z"/>
</g>
</svg>
